<?xml version="1.0" standalone="no"?>
<!DOCTYPE svg PUBLIC "-//W3C//DTD SVG 20010904//EN"
 "http://www.w3.org/TR/2001/REC-SVG-20010904/DTD/svg10.dtd">
<svg version="1.0" xmlns="http://www.w3.org/2000/svg"
 width="230.000000pt" height="230.000000pt" viewBox="0 0 230.000000 230.000000"
 preserveAspectRatio="xMidYMid meet">
<metadata>
Created by potrace 1.11, written by Peter Selinger 2001-2013
</metadata>
<g transform="translate(0.000000,230.000000) scale(0.100000,-0.100000)"
fill="#000000" stroke="none">
<path d="M79 2161 c17 -16 31 -34 31 -41 0 -6 5 -8 10 -5 6 3 10 0 10 -8 0 -8
9 -22 21 -33 12 -10 28 -31 35 -47 9 -16 20 -25 26 -21 6 4 8 3 5 -3 -4 -6 6
-24 21 -42 15 -17 42 -51 61 -76 18 -25 37 -45 42 -45 5 0 9 -6 9 -14 0 -7 10
-21 23 -30 12 -9 15 -14 7 -11 -8 4 -4 -4 10 -17 14 -13 36 -40 48 -61 13 -20
28 -34 34 -31 6 4 8 2 5 -3 -4 -6 6 -25 22 -42 16 -17 27 -31 25 -31 -2 0 5
-10 15 -22 11 -13 38 -47 60 -75 23 -29 46 -53 52 -53 6 0 8 -4 4 -9 -3 -5 4
-16 15 -24 11 -7 17 -17 13 -20 -3 -4 -2 -7 4 -7 5 0 15 -12 21 -26 7 -15 17
-22 24 -18 6 4 8 3 4 -4 -3 -6 8 -26 26 -45 18 -19 35 -38 37 -43 8 -19 39
-53 43 -48 3 3 5 -14 5 -36 -1 -33 -8 -49 -38 -83 -21 -22 -36 -44 -33 -48 2
-4 -1 -11 -7 -15 -8 -5 -9 -3 -4 7 8 12 6 12 -8 0 -9 -7 -15 -17 -12 -21 3 -4
-2 -11 -11 -14 -8 -3 -12 -10 -9 -16 3 -5 -2 -10 -11 -10 -10 0 -15 -3 -12 -6
3 -3 -4 -15 -16 -27 -11 -13 -37 -42 -56 -65 -19 -24 -48 -57 -63 -75 -16 -18
-37 -41 -47 -52 -9 -11 -17 -22 -17 -25 0 -3 -16 -22 -36 -44 -20 -21 -34 -43
-30 -49 3 -5 2 -7 -4 -4 -5 3 -16 -3 -24 -15 -8 -11 -21 -28 -30 -37 -34 -34
-122 -144 -108 -136 12 8 12 6 0 -8 -8 -10 -16 -15 -19 -12 -3 2 -19 -14 -36
-38 -17 -23 -36 -46 -43 -50 -8 -5 -11 -12 -8 -18 4 -5 2 -9 -4 -9 -5 0 -31
-26 -56 -57 -25 -32 -56 -69 -67 -82 -51 -54 -119 -51 1115 -50 1041 0 1140 1
1120 16 -13 8 -23 21 -23 28 0 7 -7 15 -15 19 -8 3 -15 11 -15 17 0 6 -10 20
-22 30 -11 11 -17 19 -13 19 4 0 -2 9 -15 20 -13 11 -20 20 -16 20 4 0 -4 11
-18 24 -15 13 -26 27 -26 32 0 5 -9 15 -20 22 -11 7 -20 17 -20 22 0 11 -22
40 -60 77 -14 14 -18 22 -10 18 8 -4 2 4 -14 19 -16 14 -25 26 -21 26 4 0 -5
12 -21 26 -16 15 -22 23 -14 19 8 -4 0 7 -18 24 -18 17 -29 31 -25 31 4 0 -3
7 -15 16 -12 8 -22 20 -22 26 0 6 -7 18 -15 27 -8 9 -26 28 -40 43 -14 16 -23
28 -19 28 3 0 -4 9 -17 21 -13 11 -17 17 -9 14 8 -4 2 4 -14 19 -16 14 -26 26
-22 26 4 0 -5 11 -20 25 -15 14 -23 25 -19 25 4 0 -4 9 -19 21 -14 11 -26 26
-26 34 0 7 -10 20 -22 29 -13 9 -16 14 -8 11 8 -4 3 4 -12 17 -16 13 -28 29
-28 36 0 7 -4 12 -10 12 -5 0 -10 7 -10 16 0 8 -3 13 -7 11 -5 -3 -17 7 -27
21 -12 16 -14 22 -5 17 8 -4 -2 7 -21 25 -19 18 -28 29 -20 25 8 -4 0 6 -18
22 -18 15 -32 34 -32 41 0 6 -5 12 -11 12 -5 0 -8 4 -4 9 3 5 1 12 -4 16 -12
7 -10 45 2 45 4 0 5 5 2 10 -3 6 -1 10 4 10 6 0 11 5 11 12 0 7 23 34 50 60
28 26 47 48 44 48 -4 0 13 19 37 42 24 22 38 37 30 33 -9 -5 -12 -4 -7 3 4 7
14 12 22 12 8 0 13 4 11 9 -1 5 8 18 21 29 13 11 24 24 25 29 1 4 5 7 9 6 5
-2 8 2 8 9 0 6 16 26 35 43 19 18 32 35 28 39 -3 3 1 6 10 6 9 0 19 5 23 12 5
7 2 8 -7 3 -8 -4 6 11 29 34 24 22 40 41 36 41 -4 0 15 21 42 46 27 26 43 43
35 39 -9 -5 -12 -4 -7 3 4 7 14 12 22 12 8 0 13 4 12 9 -2 5 13 25 32 44 91
94 110 115 110 126 0 6 8 11 17 11 9 0 14 3 10 6 -3 3 10 21 28 40 19 19 31
34 27 34 -4 0 0 5 8 10 10 6 -356 10 -1044 10 l-1058 0 31 -29z"/>
</g>
</svg>
